<svg width="80" height="24" viewBox="0 0 211 64" fill="none" xmlns="http://www.w3.org/2000/svg">
<path d="M82.7795 18.146V35.591C82.7795 38.5084 81.1124 40.2946 78.3141 40.2946C75.5753 40.2946 73.7296 38.2107 73.7296 35.1147V18.146H66.1681V35.591C66.1681 39.2229 67.1207 41.8426 69.0855 43.6288C71.2289 45.5936 74.5036 46.6653 78.3141 46.6653C81.946 46.6653 85.042 45.6531 87.245 43.8074C89.5075 41.9022 90.341 39.6397 90.341 35.591V18.146H82.7795Z" fill="#29292B"></path>
<path d="M94.906 18.146V58.0373H102.467V42.7357C104.79 45.415 107.707 46.6653 111.696 46.6653C119.972 46.6653 125.45 40.8305 125.45 32.0187C125.45 26.4815 123.366 22.3138 119.198 19.4559C116.876 17.9079 114.435 17.1934 111.517 17.1934C107.409 17.1934 104.73 18.5032 102.467 21.5397V18.146H94.906ZM110.029 23.5641C114.316 23.5641 117.352 27.1364 117.352 32.1973C117.352 37.0795 114.197 40.5923 109.791 40.5923C105.385 40.5923 102.467 37.2581 102.467 32.2568C102.467 27.1364 105.564 23.5641 110.029 23.5641Z" fill="#29292B"></path>
<path d="M147.621 37.6153C145.656 39.342 144.227 39.9374 142.262 39.9374C137.856 39.9374 134.701 36.5436 134.701 31.84C134.701 27.3151 137.797 23.9213 141.964 23.9213C144.167 23.9213 145.953 24.6953 147.621 26.3624L152.681 21.7779C149.169 18.6223 145.775 17.1934 141.667 17.1934C133.093 17.1934 127.02 23.3855 127.02 32.0782C127.02 40.4732 133.212 46.6653 141.607 46.6653C145.775 46.6653 149.049 45.415 152.205 42.5571L147.621 37.6153Z" fill="#29292B"></path>
<path d="M161.663 45.7127V6H154.101V45.7127H161.663Z" fill="#29292B"></path>
<path d="M174.34 18.146H166.779V45.7127H174.34V18.146ZM170.589 6.05954C168.148 6.05954 166.362 7.84572 166.362 10.2868C166.362 12.6684 168.148 14.4546 170.589 14.4546C172.971 14.4546 174.757 12.6684 174.757 10.3464C174.757 7.84572 173.03 6.05954 170.589 6.05954Z" fill="#29292B"></path>
<path d="M179.456 18.146V58.0373H187.018V42.7357C189.34 45.415 192.257 46.6653 196.246 46.6653C204.522 46.6653 210 40.8305 210 32.0187C210 26.4815 207.916 22.3138 203.748 19.4559C201.426 17.9079 198.985 17.1934 196.068 17.1934C191.96 17.1934 189.28 18.5032 187.018 21.5397V18.146H179.456ZM194.579 23.5641C198.866 23.5641 201.903 27.1364 201.903 32.1973C201.903 37.0795 198.747 40.5923 194.341 40.5923C189.935 40.5923 187.018 37.2581 187.018 32.2568C187.018 27.1364 190.114 23.5641 194.579 23.5641Z" fill="#29292B"></path>
<path d="M17.7755 57.8576C9.5267 57.9757 2.16079 51.6378 0.866181 43.2411C-0.0481506 37.3132 1.554 32.1548 5.6594 27.8924C11.395 21.9374 14.2389 19.2713 20.0308 13.3721C21.4791 11.8973 23.6286 12.4119 24.1262 14.339C24.3875 15.3531 23.9559 16.1327 23.2714 16.8296C19.7398 20.4238 19.1892 20.8153 15.6674 24.4196C13.2353 26.9086 10.7006 29.3047 8.41727 31.927C5.15676 35.6731 4.44415 40.1127 6.11408 44.7581C7.79228 49.4256 11.2066 52.2014 16.0725 52.9371C20.1895 53.5597 23.7741 52.3094 26.7072 49.3344C34.8767 41.0509 43.0081 32.7251 51.1428 24.4061C53.4923 22.0032 54.0942 18.755 52.8095 15.7125C51.5909 12.827 48.7636 10.9996 45.551 11.1143C43.4132 11.1902 41.6639 12.1689 40.1626 13.7079C34.3492 19.6645 28.516 25.6025 22.6911 31.5473C20.5483 33.7342 18.4055 35.9228 16.261 38.108C15.6592 38.7222 15.2359 39.3888 15.2574 40.3253C15.2822 41.3917 15.7121 42.1612 16.6115 42.6556C17.549 43.1703 18.4766 43.0859 19.3363 42.47C19.6935 42.2135 20.0027 41.8828 20.3135 41.5655C28.1853 33.5351 36.0489 25.4928 43.9456 17.486C44.4135 17.0102 45.1195 16.6524 45.7693 16.5191C46.7696 16.3133 47.7963 16.9663 48.2262 17.8708C48.6512 18.7769 48.2775 19.6139 47.636 20.4086C47.5318 20.5386 47.4128 20.6567 47.2954 20.7765C39.2102 29.028 31.135 37.2896 23.0333 45.5242C20.0556 48.5498 15.479 48.5059 12.5905 45.4955C9.84581 42.6354 9.81274 38.0405 12.564 35.15C14.7134 32.8922 16.9191 30.6884 19.1016 28.461C25.1216 22.3171 31.1152 16.1462 37.1699 10.0377C40.5644 6.61395 44.6879 5.507 49.2563 6.83163C53.8412 8.15963 56.7776 11.3506 57.8242 16.099C58.7766 20.4154 57.7531 24.3505 54.6761 27.5211C46.4174 36.0325 38.114 44.4983 29.7792 52.9337C26.484 56.2731 22.4199 57.8525 17.7755 57.8576Z" fill="url(#paint0_linear)"></path>
<defs>
<linearGradient id="paint0_linear" x1="7.81289" y1="54.9755" x2="54.2471" y2="10.9219" gradientUnits="userSpaceOnUse">
<stop stop-color="#6454F0"></stop>
<stop offset="1" stop-color="#6EE2F5"></stop>
</linearGradient>
</defs>
</svg>